# xmcd CD database file
#
# Track frame offsets:
#	150
#	27250
#	46415
#	72172
#	93030
#	113382
#	130440
#	153905
#	179550
#	202437
#
# Disc length: 3024 seconds
#
# Revision: 0
# Processed by: cddbd v1.5PL3 Copyright (c) Steve Scherf et al.
# Submitted via: CDex 1.50beta10
#
DISCID=860bce0a
DTITLE=玉川紗己子 - あなたがここにいてほしい
DYEAR=1994
DGENRE=Vocal
TTITLE0=大地に抱かれ
TTITLE1=巡り合う日に
TTITLE2=一億年目の水晶
TTITLE3=懐かしい空
TTITLE4=風の生まれる場所
TTITLE5=東の夢跡
TTITLE6=この空の下で
TTITLE7=砂の時計
TTITLE8=ひとつぶ -wish you were here-
TTITLE9=いつもそばにいるよ
EXTD=YEAR: 1994
EXTT0=
EXTT1=
EXTT2=
EXTT3=
EXTT4=
EXTT5=
EXTT6=
EXTT7=
EXTT8=
EXTT9=
PLAYORDER=
